<mxfile host="Electron" modified="2023-09-04T03:39:59.768Z" agent="Mozilla/5.0 (Macintosh; Intel Mac OS X 10_15_7) AppleWebKit/537.36 (KHTML, like Gecko) draw.io/21.6.8 Chrome/114.0.5735.289 Electron/25.5.0 Safari/537.36" etag="bjf-PhG8sZQBkxZs_eDR" version="21.6.8" type="device">
  <diagram name="Page-1" id="29Th9GixM3glW31zKPa9">
    <mxGraphModel dx="2133" dy="894" grid="1" gridSize="10" guides="1" tooltips="1" connect="1" arrows="1" fold="1" page="1" pageScale="1" pageWidth="827" pageHeight="1169" math="0" shadow="0">
      <root>
        <mxCell id="0" />
        <mxCell id="1" parent="0" />
        <mxCell id="rtUSCVRjXJ9RpZANG1u5-13" value="" style="rounded=0;whiteSpace=wrap;html=1;fillColor=none;strokeWidth=2;" parent="1" vertex="1">
          <mxGeometry x="-250" y="80" width="930" height="370" as="geometry" />
        </mxCell>
        <mxCell id="L2ykaPObTeFkL1fDe34t-8" value="PROVISIONING&lt;br&gt;&amp;amp;&lt;br&gt;DEPLOYMENT" style="edgeStyle=orthogonalEdgeStyle;rounded=0;orthogonalLoop=1;jettySize=auto;html=1;entryX=0;entryY=0.5;entryDx=0;entryDy=0;strokeWidth=2;startArrow=classic;startFill=1;" parent="1" source="L2ykaPObTeFkL1fDe34t-7" target="rtUSCVRjXJ9RpZANG1u5-8" edge="1">
          <mxGeometry relative="1" as="geometry" />
        </mxCell>
        <mxCell id="L2ykaPObTeFkL1fDe34t-7" value="" style="rounded=1;whiteSpace=wrap;html=1;arcSize=2;strokeWidth=2;fillColor=none;" parent="1" vertex="1">
          <mxGeometry x="-220" y="145" width="180" height="255" as="geometry" />
        </mxCell>
        <mxCell id="rtUSCVRjXJ9RpZANG1u5-8" value="" style="rounded=1;whiteSpace=wrap;html=1;arcSize=2;strokeWidth=2;fillColor=none;" parent="1" vertex="1">
          <mxGeometry x="70" y="145" width="570" height="255" as="geometry" />
        </mxCell>
        <mxCell id="rtUSCVRjXJ9RpZANG1u5-5" value="" style="rounded=1;whiteSpace=wrap;html=1;strokeWidth=2;fillColor=none;" parent="1" vertex="1">
          <mxGeometry x="100" y="205" width="120" height="150" as="geometry" />
        </mxCell>
        <mxCell id="rtUSCVRjXJ9RpZANG1u5-2" value="MongoDB" style="shape=cylinder3;whiteSpace=wrap;html=1;boundedLbl=1;backgroundOutline=1;size=15;strokeWidth=2;fillColor=none;" parent="1" vertex="1">
          <mxGeometry x="130" y="240" width="60" height="80" as="geometry" />
        </mxCell>
        <mxCell id="rtUSCVRjXJ9RpZANG1u5-3" value="ReactJS" style="rounded=1;whiteSpace=wrap;html=1;strokeWidth=2;fillColor=none;" parent="1" vertex="1">
          <mxGeometry x="490" y="205" width="120" height="150" as="geometry" />
        </mxCell>
        <mxCell id="rtUSCVRjXJ9RpZANG1u5-4" value="NextJS" style="rounded=1;whiteSpace=wrap;html=1;strokeWidth=2;fillColor=none;" parent="1" vertex="1">
          <mxGeometry x="294" y="205" width="120" height="150" as="geometry" />
        </mxCell>
        <mxCell id="rtUSCVRjXJ9RpZANG1u5-10" value="AWS Cloud" style="text;html=1;align=center;verticalAlign=middle;resizable=0;points=[];autosize=1;strokeColor=none;fillColor=none;strokeWidth=2;fontStyle=1" parent="1" vertex="1">
          <mxGeometry x="324" y="120" width="90" height="30" as="geometry" />
        </mxCell>
        <mxCell id="rtUSCVRjXJ9RpZANG1u5-11" value="" style="endArrow=classic;startArrow=classic;html=1;rounded=0;entryX=1;entryY=0.5;entryDx=0;entryDy=0;exitX=0;exitY=0.5;exitDx=0;exitDy=0;strokeWidth=2;" parent="1" source="rtUSCVRjXJ9RpZANG1u5-4" target="rtUSCVRjXJ9RpZANG1u5-5" edge="1">
          <mxGeometry width="50" height="50" relative="1" as="geometry">
            <mxPoint x="400" y="410" as="sourcePoint" />
            <mxPoint x="450" y="360" as="targetPoint" />
          </mxGeometry>
        </mxCell>
        <mxCell id="rtUSCVRjXJ9RpZANG1u5-12" value="" style="endArrow=classic;startArrow=classic;html=1;rounded=0;entryX=1;entryY=0.5;entryDx=0;entryDy=0;exitX=0;exitY=0.5;exitDx=0;exitDy=0;strokeWidth=2;" parent="1" edge="1">
          <mxGeometry width="50" height="50" relative="1" as="geometry">
            <mxPoint x="488" y="279.55" as="sourcePoint" />
            <mxPoint x="414" y="279.55" as="targetPoint" />
          </mxGeometry>
        </mxCell>
        <mxCell id="rtUSCVRjXJ9RpZANG1u5-14" value="PARKNEST ARCHITECTURE" style="text;html=1;align=center;verticalAlign=middle;resizable=0;points=[];autosize=1;strokeColor=none;fillColor=none;strokeWidth=2;fontStyle=1" parent="1" vertex="1">
          <mxGeometry x="100" y="90" width="190" height="30" as="geometry" />
        </mxCell>
        <mxCell id="L2ykaPObTeFkL1fDe34t-6" value="DOWNLOADING&lt;br&gt;CODE" style="edgeStyle=orthogonalEdgeStyle;rounded=0;orthogonalLoop=1;jettySize=auto;html=1;entryX=0.5;entryY=0;entryDx=0;entryDy=0;entryPerimeter=0;strokeWidth=2;startArrow=classic;startFill=1;" parent="1" source="L2ykaPObTeFkL1fDe34t-1" edge="1">
          <mxGeometry relative="1" as="geometry">
            <mxPoint x="-130" y="300" as="targetPoint" />
            <mxPoint as="offset" />
          </mxGeometry>
        </mxCell>
        <mxCell id="L2ykaPObTeFkL1fDe34t-1" value="TERRAFORM" style="rounded=1;whiteSpace=wrap;html=1;strokeWidth=2;fillColor=none;" parent="1" vertex="1">
          <mxGeometry x="-190" y="170" width="120" height="60" as="geometry" />
        </mxCell>
        <mxCell id="L2ykaPObTeFkL1fDe34t-10" value="Localhost" style="text;html=1;align=center;verticalAlign=middle;resizable=0;points=[];autosize=1;strokeColor=none;fillColor=none;strokeWidth=2;fontStyle=1" parent="1" vertex="1">
          <mxGeometry x="-165" y="120" width="80" height="30" as="geometry" />
        </mxCell>
        <mxCell id="L2ykaPObTeFkL1fDe34t-11" value="CODE" style="shape=card;whiteSpace=wrap;html=1;strokeWidth=2;fillColor=none;" parent="1" vertex="1">
          <mxGeometry x="-200" y="300" width="130" height="70" as="geometry" />
        </mxCell>
      </root>
    </mxGraphModel>
  </diagram>
</mxfile>
